<svg width="40" height="40" xmlns="http://www.w3.org/2000/svg">
 <!-- Created with Method Draw - http://github.com/duopixel/Method-Draw/ -->
 <g>
  <title>Layer 1</title>
  <path transform="rotate(-179.9822235107422 19.999998092651367,19.999998092651367) " stroke-opacity="0" stroke="#000" id="svg_1" d="m20.000006,1.000002c-10.493881,0 -19.000006,8.506599 -19.000006,18.999998c0,10.4934 8.506125,18.999998 19.000006,18.999998c10.493396,0 18.99999,-8.506597 18.99999,-18.999998c0,-10.493398 -8.506595,-18.999998 -18.99999,-18.999998zm0,35.723011c-2.025187,0 -3.668354,-1.642687 -3.668354,-3.668336s1.641688,-3.668409 3.668354,-3.668409c2.026149,0 3.667835,1.641739 3.667835,3.668409s-1.641686,3.668336 -3.667835,3.668336zm0,-10.072518l-10.272953,-8.578443l4.535058,0l0,-11.475783l11.476802,0l0,11.475783l4.533516,0l-10.272426,8.578443l0.000002,0z" stroke-width="1.5" fill="#0e97f2"/>
 </g>
</svg>