<svg width="16" height="16" xmlns="http://www.w3.org/2000/svg">
 <!-- Created with Method Draw - http://github.com/duopixel/Method-Draw/ -->
 <g>
  <title>Layer 1</title>
  <path stroke="#000" transform="rotate(179.8257598876953 8,8) " id="svg_2" d="m8.000003,0.873862c-4.1419,0 -7.49924,3.190485 -7.49924,7.126138c0,3.935654 3.35734,7.126138 7.49924,7.126138c4.141709,0 7.499234,-3.190484 7.499234,-7.126138c0,-3.935654 -3.357525,-7.126138 -7.499234,-7.126138zm0,13.398271c-0.799335,0 -1.447887,-0.616106 -1.447887,-1.375846s0.647969,-1.375873 1.447887,-1.375873c0.799714,0 1.447682,0.61575 1.447682,1.375873s-0.647968,1.375846 -1.447682,1.375846zm0,-3.777798l-4.054701,-3.21743l1.789973,0l0,-4.304107l4.529856,0l0,4.304107l1.789364,0l-4.054493,3.21743l0.000001,0z" stroke-opacity="0" stroke-width="1.5" fill="#0e97f2"/>
 </g>
</svg>